<mxfile host="app.diagrams.net" modified="2023-08-30T21:46:39.668Z" agent="Mozilla/5.0 (Macintosh; Intel Mac OS X 10_15_7) AppleWebKit/537.36 (KHTML, like Gecko) Chrome/116.0.0.0 Safari/537.36" version="21.7.1" etag="Fo2TQszQTwQQAdwG4-Zo" type="github">
  <diagram name="Страница — 1" id="gocQ_LfLusN6mWn75Dr2">
    <mxGraphModel>
      <root>
        <mxCell id="0" />
        <mxCell id="1" parent="0" />
      </root>
    </mxGraphModel>
  </diagram>
</mxfile>
